<svg xmlns="http://www.w3.org/2000/svg" viewBox="0 0 100 100" width="100" height="100">
  <!-- Elegant GS monogram - S flows through G -->

  <!-- G outer arc -->
  <path d="M50 10
           C25 10, 8 30, 8 50
           C8 70, 25 90, 50 90
           C68 90, 82 78, 88 62"
        stroke="#000000"
        stroke-width="10"
        fill="none"
        stroke-linecap="round"/>

  <!-- G crossbar -->
  <path d="M50 50 L82 50 L82 62"
        stroke="#000000"
        stroke-width="10"
        fill="none"
        stroke-linecap="round"
        stroke-linejoin="round"/>

  <!-- S shape engraved through - white background for cutout effect -->
  <path d="M58 18
           Q76 18, 76 32
           Q76 46, 50 50
           Q24 54, 24 70
           Q24 86, 45 86"
        stroke="#ffffff"
        stroke-width="14"
        fill="none"
        stroke-linecap="round"/>

  <!-- S shape visible line -->
  <path d="M58 18
           Q76 18, 76 32
           Q76 46, 50 50
           Q24 54, 24 70
           Q24 86, 45 86"
        stroke="#000000"
        stroke-width="8"
        fill="none"
        stroke-linecap="round"/>
</svg>
