<svg xmlns="http://www.w3.org/2000/svg" viewBox="0 0 100 100" width="100" height="100">
  <!-- GlamourSchedule - Elegant Monogram Favicon -->
  <defs>
    <!-- Premium gradient background -->
    <linearGradient id="bgGrad" x1="0%" y1="0%" x2="100%" y2="100%">
      <stop offset="0%" style="stop-color:#1a1a1a"/>
      <stop offset="100%" style="stop-color:#000000"/>
    </linearGradient>
    <!-- White gradient for logo -->
    <linearGradient id="logoGrad" x1="0%" y1="0%" x2="100%" y2="100%">
      <stop offset="0%" style="stop-color:#ffffff"/>
      <stop offset="50%" style="stop-color:#e8e8e8"/>
      <stop offset="100%" style="stop-color:#ffffff"/>
    </linearGradient>
  </defs>

  <!-- Circular background -->
  <circle cx="50" cy="50" r="48" fill="url(#bgGrad)"/>

  <!-- Subtle inner ring -->
  <circle cx="50" cy="50" r="42" fill="none" stroke="#333333" stroke-width="0.5"/>

  <!-- Elegant intertwined G and S - centered and scaled -->
  <g transform="translate(16, 16) scale(1.36)">
    <!-- G - elegant curved shape -->
    <path d="M22 2
             C10 2, 2 12, 2 22
             C2 32, 10 42, 22 42
             C30 42, 36 38, 40 32
             L40 22
             L24 22"
          stroke="url(#logoGrad)"
          stroke-width="4.5"
          fill="none"
          stroke-linecap="round"
          stroke-linejoin="round"/>

    <!-- S - flowing through the G -->
    <path d="M32 6
             C40 6, 44 10, 44 16
             C44 22, 38 26, 28 28
             C18 30, 12 34, 12 40"
          stroke="url(#logoGrad)"
          stroke-width="4.5"
          fill="none"
          stroke-linecap="round"/>
  </g>
</svg>
